<mxfile host="www.draw.io" modified="2019-12-24T20:42:20.083Z" agent="Mozilla/5.0 (Macintosh; Intel Mac OS X 10_15_1) AppleWebKit/537.36 (KHTML, like Gecko) Chrome/78.0.3904.108 Safari/537.36" etag="UEnzkTHhTVdzNGu19W-e" version="12.4.3" type="github" pages="2">
  <diagram id="g-8aUn-yCLQlOlD1rf04" name="01 - mockup">
    <mxGraphModel dx="996" dy="478" grid="1" gridSize="10" guides="1" tooltips="1" connect="1" arrows="1" fold="1" page="1" pageScale="1" pageWidth="1920" pageHeight="1200" math="0" shadow="0">
      <root>
        <mxCell id="0"/>
        <mxCell id="1" parent="0"/>
        <mxCell id="7k7S9Wrkfu1JMB76o6uD-1" value="" style="strokeWidth=1;shadow=0;dashed=0;align=center;html=1;shape=mxgraph.mockup.containers.browserWindow;rSize=0;strokeColor=#666666;strokeColor2=#008cff;strokeColor3=#c4c4c4;mainText=,;recursiveResize=0;" vertex="1" parent="1">
          <mxGeometry x="320" y="140" width="630" height="430" as="geometry"/>
        </mxCell>
        <mxCell id="7k7S9Wrkfu1JMB76o6uD-2" value="Page 1" style="strokeWidth=1;shadow=0;dashed=0;align=center;html=1;shape=mxgraph.mockup.containers.anchor;fontSize=17;fontColor=#666666;align=left;" vertex="1" parent="7k7S9Wrkfu1JMB76o6uD-1">
          <mxGeometry x="60" y="12" width="110" height="26" as="geometry"/>
        </mxCell>
        <mxCell id="7k7S9Wrkfu1JMB76o6uD-3" value="https://www.draw.io" style="strokeWidth=1;shadow=0;dashed=0;align=center;html=1;shape=mxgraph.mockup.containers.anchor;rSize=0;fontSize=17;fontColor=#666666;align=left;" vertex="1" parent="7k7S9Wrkfu1JMB76o6uD-1">
          <mxGeometry x="130" y="60" width="250" height="26" as="geometry"/>
        </mxCell>
        <mxCell id="7k7S9Wrkfu1JMB76o6uD-4" value="News of the World" style="text;html=1;strokeColor=none;fillColor=none;align=left;verticalAlign=middle;whiteSpace=wrap;rounded=0;fontStyle=1;fontSize=17;" vertex="1" parent="7k7S9Wrkfu1JMB76o6uD-1">
          <mxGeometry x="70" y="130" width="230" height="20" as="geometry"/>
        </mxCell>
        <mxCell id="7k7S9Wrkfu1JMB76o6uD-5" value="Developments in the Atlantic" style="text;html=1;strokeColor=none;fillColor=none;align=left;verticalAlign=middle;whiteSpace=wrap;rounded=0;fontSize=13;fontColor=#3399FF;" vertex="1" parent="7k7S9Wrkfu1JMB76o6uD-1">
          <mxGeometry x="70" y="170" width="420" height="20" as="geometry"/>
        </mxCell>
        <mxCell id="7k7S9Wrkfu1JMB76o6uD-6" value="Latest Global Economic Report" style="text;html=1;strokeColor=none;fillColor=none;align=left;verticalAlign=middle;whiteSpace=wrap;rounded=0;fontSize=13;fontColor=#3399FF;" vertex="1" parent="7k7S9Wrkfu1JMB76o6uD-1">
          <mxGeometry x="70" y="190" width="420" height="20" as="geometry"/>
        </mxCell>
        <mxCell id="7k7S9Wrkfu1JMB76o6uD-7" value="Something something music star" style="text;html=1;strokeColor=none;fillColor=none;align=left;verticalAlign=middle;whiteSpace=wrap;rounded=0;fontSize=13;fontColor=#3399FF;" vertex="1" parent="7k7S9Wrkfu1JMB76o6uD-1">
          <mxGeometry x="70" y="210" width="420" height="20" as="geometry"/>
        </mxCell>
        <mxCell id="7k7S9Wrkfu1JMB76o6uD-8" value="Twitter got hacked" style="text;html=1;strokeColor=none;fillColor=none;align=left;verticalAlign=middle;whiteSpace=wrap;rounded=0;fontSize=13;fontColor=#3399FF;" vertex="1" parent="7k7S9Wrkfu1JMB76o6uD-1">
          <mxGeometry x="70" y="230" width="420" height="20" as="geometry"/>
        </mxCell>
        <mxCell id="7k7S9Wrkfu1JMB76o6uD-9" value="Twitter didn&#39;t get hacked" style="text;html=1;strokeColor=none;fillColor=none;align=left;verticalAlign=middle;whiteSpace=wrap;rounded=0;fontSize=13;fontColor=#3399FF;" vertex="1" parent="7k7S9Wrkfu1JMB76o6uD-1">
          <mxGeometry x="70" y="250" width="420" height="20" as="geometry"/>
        </mxCell>
        <mxCell id="7k7S9Wrkfu1JMB76o6uD-10" value="Latest predictions for football" style="text;html=1;strokeColor=none;fillColor=none;align=left;verticalAlign=middle;whiteSpace=wrap;rounded=0;fontSize=13;fontColor=#3399FF;" vertex="1" parent="7k7S9Wrkfu1JMB76o6uD-1">
          <mxGeometry x="70" y="270" width="420" height="20" as="geometry"/>
        </mxCell>
      </root>
    </mxGraphModel>
  </diagram>
  <diagram name="02 - souces" id="DbKbJx4aomJnNt5FVq7H">
    <mxGraphModel dx="996" dy="478" grid="1" gridSize="10" guides="1" tooltips="1" connect="1" arrows="1" fold="1" page="1" pageScale="1" pageWidth="1920" pageHeight="1200" math="0" shadow="0">
      <root>
        <mxCell id="F1kFH90dVr8UZjHQC_4X-0"/>
        <mxCell id="F1kFH90dVr8UZjHQC_4X-1" parent="F1kFH90dVr8UZjHQC_4X-0"/>
        <mxCell id="F1kFH90dVr8UZjHQC_4X-2" value="" style="strokeWidth=1;shadow=0;dashed=0;align=center;html=1;shape=mxgraph.mockup.containers.browserWindow;rSize=0;strokeColor=#666666;strokeColor2=#008cff;strokeColor3=#c4c4c4;mainText=,;recursiveResize=0;" vertex="1" parent="F1kFH90dVr8UZjHQC_4X-1">
          <mxGeometry x="320" y="140" width="490" height="430" as="geometry"/>
        </mxCell>
        <mxCell id="F1kFH90dVr8UZjHQC_4X-3" value="Page 1" style="strokeWidth=1;shadow=0;dashed=0;align=center;html=1;shape=mxgraph.mockup.containers.anchor;fontSize=17;fontColor=#666666;align=left;" vertex="1" parent="F1kFH90dVr8UZjHQC_4X-2">
          <mxGeometry x="60" y="12" width="110" height="26" as="geometry"/>
        </mxCell>
        <mxCell id="F1kFH90dVr8UZjHQC_4X-4" value="https://www.draw.io" style="strokeWidth=1;shadow=0;dashed=0;align=center;html=1;shape=mxgraph.mockup.containers.anchor;rSize=0;fontSize=17;fontColor=#666666;align=left;" vertex="1" parent="F1kFH90dVr8UZjHQC_4X-2">
          <mxGeometry x="130" y="60" width="250" height="26" as="geometry"/>
        </mxCell>
        <mxCell id="F1kFH90dVr8UZjHQC_4X-5" value="News of the World" style="text;html=1;strokeColor=none;fillColor=none;align=left;verticalAlign=middle;whiteSpace=wrap;rounded=0;fontStyle=1;fontSize=17;" vertex="1" parent="F1kFH90dVr8UZjHQC_4X-2">
          <mxGeometry x="70" y="130" width="230" height="20" as="geometry"/>
        </mxCell>
        <mxCell id="F1kFH90dVr8UZjHQC_4X-6" value="Developments in the Atlantic" style="text;html=1;strokeColor=none;fillColor=none;align=left;verticalAlign=middle;whiteSpace=wrap;rounded=0;fontSize=13;fontColor=#3399FF;" vertex="1" parent="F1kFH90dVr8UZjHQC_4X-2">
          <mxGeometry x="70" y="170" width="420" height="20" as="geometry"/>
        </mxCell>
        <mxCell id="F1kFH90dVr8UZjHQC_4X-7" value="Latest Global Economic Report" style="text;html=1;strokeColor=none;fillColor=none;align=left;verticalAlign=middle;whiteSpace=wrap;rounded=0;fontSize=13;fontColor=#3399FF;" vertex="1" parent="F1kFH90dVr8UZjHQC_4X-2">
          <mxGeometry x="70" y="190" width="420" height="20" as="geometry"/>
        </mxCell>
        <mxCell id="F1kFH90dVr8UZjHQC_4X-8" value="Something something music star" style="text;html=1;strokeColor=none;fillColor=none;align=left;verticalAlign=middle;whiteSpace=wrap;rounded=0;fontSize=13;fontColor=#3399FF;" vertex="1" parent="F1kFH90dVr8UZjHQC_4X-2">
          <mxGeometry x="70" y="210" width="420" height="20" as="geometry"/>
        </mxCell>
        <mxCell id="F1kFH90dVr8UZjHQC_4X-9" value="Twitter got hacked" style="text;html=1;strokeColor=none;fillColor=none;align=left;verticalAlign=middle;whiteSpace=wrap;rounded=0;fontSize=13;fontColor=#3399FF;" vertex="1" parent="F1kFH90dVr8UZjHQC_4X-2">
          <mxGeometry x="70" y="230" width="420" height="20" as="geometry"/>
        </mxCell>
        <mxCell id="F1kFH90dVr8UZjHQC_4X-10" value="Twitter didn&#39;t get hacked" style="text;html=1;strokeColor=none;fillColor=none;align=left;verticalAlign=middle;whiteSpace=wrap;rounded=0;fontSize=13;fontColor=#3399FF;" vertex="1" parent="F1kFH90dVr8UZjHQC_4X-2">
          <mxGeometry x="70" y="250" width="420" height="20" as="geometry"/>
        </mxCell>
        <mxCell id="F1kFH90dVr8UZjHQC_4X-11" value="Latest predictions for football" style="text;html=1;strokeColor=none;fillColor=none;align=left;verticalAlign=middle;whiteSpace=wrap;rounded=0;fontSize=13;fontColor=#3399FF;" vertex="1" parent="F1kFH90dVr8UZjHQC_4X-2">
          <mxGeometry x="70" y="270" width="420" height="20" as="geometry"/>
        </mxCell>
        <mxCell id="F1kFH90dVr8UZjHQC_4X-12" value="" style="shape=curlyBracket;whiteSpace=wrap;html=1;rounded=1;fontSize=13;fontColor=#3399FF;align=left;" vertex="1" parent="F1kFH90dVr8UZjHQC_4X-2">
          <mxGeometry x="20" y="170" width="40" height="60" as="geometry"/>
        </mxCell>
        <mxCell id="F1kFH90dVr8UZjHQC_4X-17" value="" style="shape=curlyBracket;whiteSpace=wrap;html=1;rounded=1;fontSize=13;fontColor=#3399FF;align=left;" vertex="1" parent="F1kFH90dVr8UZjHQC_4X-2">
          <mxGeometry x="20" y="230" width="40" height="60" as="geometry"/>
        </mxCell>
        <mxCell id="F1kFH90dVr8UZjHQC_4X-19" value="Successfully fetched 10 articles from News API!" style="rounded=0;whiteSpace=wrap;html=1;fontSize=16;align=center;fillColor=#d5e8d4;strokeColor=#82b366;" vertex="1" parent="F1kFH90dVr8UZjHQC_4X-2">
          <mxGeometry x="280" y="270" width="200" height="70" as="geometry"/>
        </mxCell>
        <mxCell id="F1kFH90dVr8UZjHQC_4X-20" value="Successfully fetched 10 articles from News API!" style="rounded=0;whiteSpace=wrap;html=1;fontSize=16;align=center;fillColor=#f8cecc;strokeColor=#b85450;" vertex="1" parent="F1kFH90dVr8UZjHQC_4X-2">
          <mxGeometry x="280" y="350" width="200" height="70" as="geometry"/>
        </mxCell>
        <mxCell id="F1kFH90dVr8UZjHQC_4X-21" value="" style="verticalLabelPosition=bottom;verticalAlign=top;html=1;shadow=0;dashed=0;strokeWidth=1;shape=mxgraph.ios.iDeleteApp;fillColor=#cccccc;fillColor2=#000000;strokeColor=#ffffff;fontSize=16;fontColor=#000000;align=center;" vertex="1" parent="F1kFH90dVr8UZjHQC_4X-2">
          <mxGeometry x="460" y="272" width="15" height="15" as="geometry"/>
        </mxCell>
        <mxCell id="F1kFH90dVr8UZjHQC_4X-22" value="" style="verticalLabelPosition=bottom;verticalAlign=top;html=1;shadow=0;dashed=0;strokeWidth=1;shape=mxgraph.ios.iDeleteApp;fillColor=#cccccc;fillColor2=#000000;strokeColor=#ffffff;fontSize=16;fontColor=#000000;align=center;" vertex="1" parent="F1kFH90dVr8UZjHQC_4X-2">
          <mxGeometry x="460" y="353" width="15" height="15" as="geometry"/>
        </mxCell>
        <mxCell id="F1kFH90dVr8UZjHQC_4X-15" style="edgeStyle=orthogonalEdgeStyle;rounded=0;orthogonalLoop=1;jettySize=auto;html=1;exitX=1;exitY=0.5;exitDx=0;exitDy=0;entryX=0.1;entryY=0.5;entryDx=0;entryDy=0;entryPerimeter=0;fontSize=16;fontColor=#000000;" edge="1" parent="F1kFH90dVr8UZjHQC_4X-1" source="F1kFH90dVr8UZjHQC_4X-14" target="F1kFH90dVr8UZjHQC_4X-12">
          <mxGeometry relative="1" as="geometry"/>
        </mxCell>
        <mxCell id="F1kFH90dVr8UZjHQC_4X-14" value="Articles sourced from news.ycombinator.com" style="rounded=0;whiteSpace=wrap;html=1;fontSize=16;align=center;fillColor=#f5f5f5;strokeColor=#666666;fontColor=#333333;fontStyle=2" vertex="1" parent="F1kFH90dVr8UZjHQC_4X-1">
          <mxGeometry x="100" y="290" width="190" height="80" as="geometry"/>
        </mxCell>
        <mxCell id="F1kFH90dVr8UZjHQC_4X-18" style="edgeStyle=orthogonalEdgeStyle;rounded=0;orthogonalLoop=1;jettySize=auto;html=1;exitX=1;exitY=0.5;exitDx=0;exitDy=0;entryX=0.1;entryY=0.5;entryDx=0;entryDy=0;entryPerimeter=0;fontSize=16;fontColor=#000000;" edge="1" parent="F1kFH90dVr8UZjHQC_4X-1" source="F1kFH90dVr8UZjHQC_4X-16" target="F1kFH90dVr8UZjHQC_4X-17">
          <mxGeometry relative="1" as="geometry"/>
        </mxCell>
        <mxCell id="F1kFH90dVr8UZjHQC_4X-16" value="Articles sourced from newsapi.org" style="rounded=0;whiteSpace=wrap;html=1;fontSize=16;align=center;fillColor=#f5f5f5;strokeColor=#666666;fontColor=#333333;fontStyle=2" vertex="1" parent="F1kFH90dVr8UZjHQC_4X-1">
          <mxGeometry x="100" y="390" width="190" height="80" as="geometry"/>
        </mxCell>
        <mxCell id="F1kFH90dVr8UZjHQC_4X-24" style="edgeStyle=orthogonalEdgeStyle;rounded=0;orthogonalLoop=1;jettySize=auto;html=1;exitX=0;exitY=0.5;exitDx=0;exitDy=0;fontSize=16;fontColor=#000000;" edge="1" parent="F1kFH90dVr8UZjHQC_4X-1" source="F1kFH90dVr8UZjHQC_4X-23" target="F1kFH90dVr8UZjHQC_4X-19">
          <mxGeometry relative="1" as="geometry"/>
        </mxCell>
        <mxCell id="F1kFH90dVr8UZjHQC_4X-25" style="edgeStyle=orthogonalEdgeStyle;rounded=0;orthogonalLoop=1;jettySize=auto;html=1;exitX=0;exitY=0.5;exitDx=0;exitDy=0;entryX=1;entryY=0.5;entryDx=0;entryDy=0;fontSize=16;fontColor=#000000;" edge="1" parent="F1kFH90dVr8UZjHQC_4X-1" source="F1kFH90dVr8UZjHQC_4X-23" target="F1kFH90dVr8UZjHQC_4X-20">
          <mxGeometry relative="1" as="geometry"/>
        </mxCell>
        <mxCell id="F1kFH90dVr8UZjHQC_4X-23" value="Notifications that auto-dismiss after 5 seconds" style="rounded=0;whiteSpace=wrap;html=1;fontSize=16;align=center;fillColor=#f5f5f5;strokeColor=#666666;fontColor=#333333;fontStyle=2" vertex="1" parent="F1kFH90dVr8UZjHQC_4X-1">
          <mxGeometry x="870" y="440" width="190" height="80" as="geometry"/>
        </mxCell>
      </root>
    </mxGraphModel>
  </diagram>
</mxfile>
